<svg version="1.1" id="Layer_1" xmlns="http://www.w3.org/2000/svg" xmlns:xlink="http://www.w3.org/1999/xlink" x="0px" y="0px"
	 width="100%" viewBox="0 0 592 239" enable-background="new 0 0 592 239" xml:space="preserve">
<path fill="#FFFFFF" opacity="1.000000" stroke="none" 
	d="
M593.000000,128.000000 
	C593.000000,165.309219 593.000000,202.618454 593.000000,240.000000 
	C405.645233,240.000000 218.290482,240.000000 30.624203,239.622681 
	C33.142368,238.750183 35.972034,238.255035 38.999569,237.725266 
	C38.999569,227.516235 39.048531,217.571747 38.916599,207.629654 
	C38.904663,206.729996 37.727661,205.845810 37.187958,204.578217 
	C38.190037,202.568756 39.781944,200.974365 39.876999,199.295227 
	C40.202168,193.551361 40.094810,187.774811 39.915928,182.018082 
	C39.883507,180.974686 38.736164,179.965942 38.207180,178.536133 
	C38.524105,177.704330 38.924507,177.277328 38.923923,176.850891 
	C38.887981,150.512390 38.819241,124.173927 38.842957,97.423538 
	C39.182613,96.597496 39.644791,96.186852 39.651688,95.768707 
	C39.781895,87.873459 39.883682,79.977264 39.867161,72.081535 
	C39.866379,71.706085 38.718227,71.333046 38.223160,70.555725 
	C38.561317,69.233521 38.969440,68.314865 38.971310,67.395386 
	C38.993168,56.644600 38.953938,45.893684 39.079453,34.819744 
	C40.013741,33.907475 40.723881,33.153572 41.596279,32.753387 
	C58.937675,24.798649 76.337273,16.969406 93.629257,8.909179 
	C98.574028,6.604293 103.218063,3.654225 108.000000,1.000000 
	C269.550201,1.000000 431.100433,1.000000 593.000000,1.000000 
	C593.000000,40.687416 593.000000,80.375854 592.624390,120.532318 
	C590.476868,122.471199 588.081238,123.598175 587.046509,125.475357 
	C583.495911,131.916656 577.525146,133.460083 571.079895,133.931305 
	C565.935608,134.307434 563.092407,132.128891 563.029480,128.265869 
	C562.923584,121.771919 562.907593,115.272514 563.081421,108.781487 
	C563.114807,107.533432 563.886475,105.620621 564.843262,105.194351 
	C570.507080,102.671059 578.368774,106.909142 580.092957,112.905586 
	C580.436707,114.101112 581.980164,114.951675 582.970459,115.961304 
	C583.646667,114.813515 584.873535,113.681824 584.907654,112.515244 
	C585.097595,106.025146 585.060852,99.525368 584.935974,93.032089 
	C584.915161,91.951790 584.079041,90.887177 583.272339,89.004684 
	C581.768799,90.871178 580.564148,91.842171 580.047974,93.096458 
	C577.557129,99.148872 572.828430,100.492363 566.868408,100.077278 
	C564.180054,99.890053 562.907410,99.179520 562.964600,96.310135 
	C563.084045,90.316505 562.823303,84.309731 563.129700,78.329414 
	C563.204102,76.877869 564.567383,74.752037 565.860962,74.228592 
	C572.206909,71.660645 582.844849,76.314339 586.255310,82.592865 
	C587.071899,84.096230 588.623474,85.200409 589.836975,86.488190 
	C590.999207,81.303558 591.218201,76.966843 590.866150,72.677017 
	C590.760132,71.385536 589.080505,69.173592 588.097595,69.160240 
	C571.876038,68.939850 555.650574,69.003510 539.041870,69.003510 
	C537.616211,71.630432 540.487366,72.376266 542.386108,72.660110 
	C547.228149,73.383942 548.174133,76.056267 548.096802,80.525063 
	C547.840454,95.344078 548.000183,110.170288 547.999878,124.993744 
	C547.999695,133.107559 547.777588,133.240341 539.608093,134.103149 
	C538.395874,134.231171 537.328552,135.731796 536.194214,136.597412 
	C537.399048,137.398132 538.597046,138.883957 539.809692,138.895920 
	C555.630981,139.052094 571.455261,139.074677 587.275024,138.855728 
	C588.530762,138.838348 590.261230,137.010376 590.886841,135.624680 
	C591.959290,133.249298 592.332947,130.558395 593.000000,128.000000 
M188.046722,82.386421 
	C195.170822,96.895653 202.126343,111.491425 209.506851,125.869041 
	C212.235519,131.184631 213.626877,137.534683 219.692993,141.647202 
	C224.822723,132.458694 229.735016,123.659698 234.976578,114.270897 
	C239.898376,123.800179 244.486542,132.683456 249.074692,141.566742 
	C249.680542,141.460159 250.286392,141.353592 250.892242,141.247009 
	C252.363007,137.923096 253.816544,134.591446 255.307526,131.276627 
	C261.322021,117.904869 266.908112,104.314270 273.554047,91.263626 
	C276.915436,84.662849 277.498962,75.903084 285.898560,72.435417 
	C286.495667,72.188911 287.005402,70.685616 286.836548,69.926659 
	C286.671997,69.186638 285.601715,68.134209 284.899017,68.110512 
	C280.074158,67.947838 275.237732,67.923050 270.414856,68.108910 
	C269.596649,68.140442 268.279602,69.331207 268.179901,70.112343 
	C268.070648,70.968704 268.991852,72.690819 269.658264,72.795197 
	C274.753113,73.593140 273.049896,76.599167 271.914886,79.334869 
	C268.645905,87.214058 265.335785,95.076820 261.962799,102.912010 
	C259.363373,108.950272 256.644531,114.937126 253.740341,121.484505 
	C252.608490,119.138718 251.976379,117.312202 250.936935,115.758156 
	C244.162140,105.629349 242.915054,95.820648 250.751358,85.313148 
	C254.297470,80.558250 255.129639,73.700264 262.304993,72.092010 
	C262.915741,71.955101 263.328613,70.935425 264.463196,69.565323 
	C256.959991,68.991676 250.203186,68.475098 243.293350,67.946823 
	C242.800949,70.775604 242.672256,72.735909 246.157562,73.146927 
	C247.198181,73.269638 249.047470,75.563560 248.805756,76.135239 
	C246.383347,81.864265 243.601700,87.441399 240.451080,94.047104 
	C236.958191,86.504761 233.940155,79.987785 230.983459,73.603241 
	C233.352417,71.915916 238.283783,75.109085 237.861557,69.344528 
	C228.186508,69.344528 218.657501,69.344528 207.900635,69.344528 
	C209.291885,70.839859 209.831665,71.970688 210.597168,72.152824 
	C215.331619,73.279373 217.140213,77.044960 219.001968,80.888023 
	C222.667480,88.454460 226.168991,96.118172 230.249268,103.457596 
	C232.023651,106.649231 231.896545,109.008812 230.052536,111.866127 
	C227.747086,115.438408 225.695724,119.174667 223.280807,123.270744 
	C215.348938,106.618706 207.645248,90.445732 199.810074,73.996704 
	C202.709702,73.037125 204.899750,72.312370 207.089798,71.587616 
	C205.983658,69.948257 204.784760,69.105385 203.559570,69.065239 
	C198.703262,68.906120 193.838120,69.044006 188.977478,68.978905 
	C186.281403,68.942802 183.529755,68.323616 180.910263,68.704247 
	C178.538254,69.048920 177.968719,71.790451 180.137894,72.334511 
	C185.322830,73.634995 185.519241,78.435120 188.046722,82.386421 
M333.401276,125.913147 
	C334.963776,127.799286 336.231262,130.077393 338.134918,131.510254 
	C355.003265,144.206772 373.158630,143.130112 391.644196,135.880051 
	C393.199127,135.270203 394.673828,132.559326 394.849121,130.698654 
	C395.300140,125.910812 394.992493,121.052200 395.002655,116.221901 
	C395.009827,112.813766 395.626495,109.998566 400.010651,109.886665 
	C401.347992,109.852531 402.662231,108.912880 403.987030,108.387932 
	C404.166779,107.947464 404.346527,107.507004 404.526306,107.066544 
	C403.100769,106.377853 401.687103,105.123199 400.247742,105.093040 
	C391.423798,104.908150 382.589935,104.861382 373.769775,105.121414 
	C372.068573,105.171570 370.413483,106.784882 368.737122,107.677101 
	C385.819916,110.009628 381.363373,111.649811 381.997284,123.677818 
	C382.006042,123.843842 382.032410,124.020935 381.989441,124.175934 
	C380.843872,128.310623 380.720856,133.209763 375.565369,134.742996 
	C368.472626,136.852402 361.525482,135.730240 355.868713,131.196487 
	C338.673798,117.415260 338.891479,90.180344 354.504028,77.032257 
	C364.755554,68.398964 379.295227,70.612823 386.347931,81.649719 
	C387.453766,83.380219 389.464111,84.532700 391.056213,85.952454 
	C391.376038,83.827332 391.742554,81.707726 391.994904,79.574615 
	C392.111389,78.589745 392.104156,77.566093 391.981293,76.581451 
	C391.577698,73.347595 390.582916,70.806305 386.788544,69.880905 
	C375.121887,67.035538 363.332153,65.834038 351.979645,70.174576 
	C340.305328,74.638168 331.678223,82.581810 328.893738,95.533295 
	C326.651520,105.962730 327.893127,115.866447 333.401276,125.913147 
M131.575180,126.936516 
	C127.783730,130.832809 123.992287,134.729111 120.024475,138.806641 
	C128.885239,138.806641 137.346924,138.806641 145.680710,138.806641 
	C147.327118,133.977631 143.384766,133.875458 140.867538,133.124252 
	C138.359360,132.375717 137.677521,131.801422 138.869110,129.113937 
	C140.750732,124.870117 142.046692,120.362900 143.524704,115.945152 
	C144.512924,112.991402 146.108337,111.517006 149.579956,111.904205 
	C153.362411,112.326057 157.258133,111.727142 161.042404,112.140877 
	C162.462189,112.296097 164.415314,113.785194 164.908188,115.116669 
	C166.897766,120.491592 168.412476,126.042297 170.117203,131.575714 
	C167.060547,133.376511 164.318787,134.991760 161.577026,136.607025 
	C161.753876,137.159683 161.930710,137.712326 162.107559,138.264969 
	C172.668961,138.264969 183.230347,138.264969 195.509567,138.264969 
	C193.173141,136.360840 191.683151,135.271713 190.340652,134.023911 
	C188.181870,132.017395 185.391815,130.260590 184.176285,127.762039 
	C181.944016,123.173546 180.708710,118.105835 178.978180,113.266380 
	C173.402298,97.673340 167.800659,82.089485 162.165161,66.517929 
	C161.837189,65.611710 161.121643,64.845764 160.586456,64.014549 
	C159.756317,64.870438 158.605881,65.584175 158.151886,66.607025 
	C156.262634,70.863617 154.692001,75.261467 152.807343,79.520264 
	C145.902374,95.123383 138.918564,110.691597 131.575180,126.936516 
M417.441895,113.048332 
	C415.222778,118.224701 413.224945,123.511932 410.706604,128.538361 
	C409.032898,131.878952 406.660065,134.769150 402.374237,135.349564 
	C401.379456,135.484268 400.590302,137.137344 399.037659,138.814087 
	C408.845520,138.814087 417.301575,138.814087 425.755280,138.814087 
	C427.482361,131.698547 419.300171,135.261597 418.100922,130.969543 
	C419.719238,126.378052 421.411591,121.372421 423.254761,116.422958 
	C424.375763,113.412697 426.269379,111.597244 429.934021,111.928185 
	C433.568970,112.256439 437.260956,112.107841 440.919891,111.963455 
	C443.492096,111.861938 444.614929,112.667671 445.235840,115.393394 
	C446.474579,120.831345 448.338226,126.126953 450.002930,131.678802 
	C447.148193,133.327850 444.378082,134.928024 441.199738,136.764008 
	C444.848083,139.258118 463.056274,139.948914 475.587799,138.376053 
	C473.029022,136.390778 471.389526,135.295853 469.964111,133.970657 
	C467.902527,132.053986 465.058502,130.315445 464.171234,127.903801 
	C456.898346,108.136620 450.019592,88.224617 442.949371,68.382179 
	C442.510895,67.151550 441.466095,66.136971 440.703369,65.021873 
	C439.805145,65.989906 438.579224,66.808266 438.058380,67.948669 
	C431.295990,82.755409 424.633759,97.607872 417.441895,113.048332 
M492.000000,121.440216 
	C491.586273,125.151894 491.929321,129.212875 490.444336,132.430130 
	C489.684326,134.076828 485.555267,134.004776 483.144257,135.128647 
	C482.086121,135.621872 481.516022,137.162018 480.305145,138.790527 
	C493.583618,138.790527 505.697418,138.790527 517.786377,138.790527 
	C518.752441,134.315659 515.867249,133.885605 512.931396,134.053024 
	C508.308807,134.316635 506.712799,132.223297 506.949646,127.810059 
	C507.181305,123.492485 507.095093,119.150238 506.981018,114.823250 
	C506.706512,104.412285 506.391052,94.001648 505.980957,83.595261 
	C505.711945,76.769257 507.326111,74.986565 514.185913,74.999916 
	C514.518982,75.000565 514.858765,74.956497 515.184204,75.006470 
	C521.309998,75.947235 528.259949,75.453857 529.734741,84.091003 
	C529.897339,85.043404 531.994507,85.665489 533.419922,86.586433 
	C533.998108,79.608101 534.563660,73.735291 534.888611,67.849213 
	C534.938354,66.949944 534.071899,65.670555 533.258301,65.170631 
	C532.728455,64.845093 530.951538,65.371162 530.718445,65.928055 
	C528.914673,70.237930 524.872864,69.813057 521.599487,69.886635 
	C509.115417,70.167213 496.617737,70.163651 484.133057,69.897079 
	C480.523499,69.820007 476.051941,69.578186 473.554993,67.507423 
	C469.888458,64.466660 468.636169,66.160164 467.589691,68.985901 
	C465.637543,74.257240 464.097321,79.684692 462.515137,85.085098 
	C462.309052,85.788582 462.615692,87.107719 463.135315,87.442474 
	C463.809937,87.877129 465.187286,87.986412 465.814117,87.566673 
	C467.025116,86.755730 468.174500,85.623352 468.907776,84.366554 
	C472.964111,77.414108 479.071930,74.824242 486.927307,74.892136 
	C490.824402,74.925819 492.155457,75.954407 492.086914,79.988945 
	C491.857697,93.474670 492.000000,106.966713 492.000000,121.440216 
M65.631165,134.004135 
	C63.901936,135.158508 62.172703,136.312897 60.443470,137.467270 
	C60.692501,137.978180 60.941532,138.489090 61.190563,139.000000 
	C62.817684,139.000000 64.444809,139.000000 66.071930,139.000000 
	C80.392502,139.000000 94.713081,139.000000 109.033653,139.000000 
	C117.936165,139.000000 118.310028,139.019302 118.775124,130.013565 
	C118.919754,127.213120 122.632011,123.458542 117.090469,120.429199 
	C116.249680,121.585091 115.321198,122.768066 114.491837,124.016853 
	C109.125336,132.097229 101.036659,133.884323 92.066879,134.065659 
	C87.560432,134.156784 85.885017,132.467926 85.935593,127.950394 
	C86.105209,112.799126 85.999947,97.644791 86.000015,82.491623 
	C86.000053,74.797844 86.015930,74.858795 93.332771,72.964317 
	C94.822205,72.578667 96.143478,71.543564 97.542274,70.807846 
	C97.332047,70.198410 97.121826,69.588974 96.911598,68.979538 
	C85.289299,68.979538 73.667000,68.979538 62.044697,68.979538 
	C61.830994,69.681671 61.617290,70.383812 61.403584,71.085945 
	C64.941307,72.541443 68.479027,73.996941 71.999924,75.445518 
	C71.999924,92.778625 72.051300,109.759109 71.958633,126.738792 
	C71.938980,130.340454 71.074539,133.695602 65.631165,134.004135 
M302.000031,38.686737 
	C302.000031,78.739220 302.000031,118.791710 302.000031,158.631012 
	C305.070068,158.631012 307.468018,158.631012 309.660767,158.631012 
	C309.660767,117.221748 309.660767,76.181908 309.660767,35.160126 
	C302.935577,34.859051 302.935577,34.859051 302.000031,38.686737 
M523.477173,189.973953 
	C519.571777,185.937653 519.400940,178.048080 511.318634,177.832993 
	C511.318634,187.475372 511.318634,196.693695 511.318634,206.116974 
	C513.063110,205.950027 514.461670,205.816193 516.315918,205.638748 
	C516.315918,199.367157 516.315918,193.419724 516.315918,187.159515 
	C520.011902,192.546494 523.676697,197.304138 526.661011,202.455994 
	C528.460327,205.562164 530.416809,206.637283 533.777588,205.665344 
	C533.777588,196.497437 533.777588,187.415100 533.777588,178.221664 
	C532.156677,178.221664 530.760010,178.221664 528.947876,178.221664 
	C528.947876,184.451187 528.947876,190.477997 528.947876,197.798981 
	C526.810059,194.645218 525.405823,192.573685 523.477173,189.973953 
M146.968948,201.051514 
	C146.334503,198.006348 145.700043,194.961182 145.065598,191.916016 
	C145.612991,188.528946 146.604599,184.684540 145.543182,181.531189 
	C144.327194,177.918533 140.229156,177.833862 136.644165,177.971573 
	C133.214905,178.103302 129.776611,178.000000 126.208351,178.000000 
	C126.208351,187.510345 126.208351,196.546890 126.208351,206.000000 
	C130.175812,206.000000 133.961060,205.802551 137.716110,206.054611 
	C141.603134,206.315506 144.778763,205.545929 146.968948,201.051514 
M315.000000,187.547455 
	C315.000000,193.661911 315.000000,199.776367 315.000000,205.890823 
	C315.570496,206.115646 316.140991,206.340485 316.711487,206.565323 
	C317.474182,205.351730 318.834442,204.167206 318.895111,202.919464 
	C319.144836,197.786087 318.999603,192.633499 318.999603,186.782730 
	C323.120148,192.652390 326.870026,197.533661 330.077942,202.748322 
	C331.809753,205.563446 333.574677,206.768829 336.760834,205.594681 
	C336.760834,196.474426 336.760834,187.380936 336.760834,178.246643 
	C335.119751,178.246643 333.721130,178.246643 331.883545,178.246643 
	C331.883545,184.494858 331.883545,190.514420 331.883545,197.693878 
	C327.501526,191.244064 323.912292,185.733444 320.042145,180.427765 
	C319.096466,179.131317 317.230225,178.506363 315.000000,177.063293 
	C315.000000,181.255020 315.000000,183.909882 315.000000,187.547455 
M204.492706,199.995148 
	C205.496597,201.985840 206.500473,203.976547 207.464859,205.888931 
	C209.320984,205.888931 210.954956,205.888931 212.964783,205.888931 
	C210.915771,201.955887 208.991455,198.262177 207.285446,194.987503 
	C210.265884,192.278778 212.467636,189.311966 211.901352,185.271713 
	C211.440277,181.982101 209.947983,178.598099 206.243668,178.230698 
	C201.227280,177.733185 196.124496,178.106949 191.182510,178.106949 
	C191.182510,187.686569 191.182510,196.625412 191.182510,205.634460 
	C192.872253,205.634460 194.370667,205.634460 196.269592,205.634460 
	C196.269592,201.874710 196.269592,198.477097 196.269592,195.344101 
	C200.446060,194.224747 203.155655,195.191986 204.492706,199.995148 
M377.715759,205.996857 
	C378.782776,205.890518 379.849792,205.784180 381.287109,205.640915 
	C379.111389,201.716675 377.165314,198.206635 375.160706,194.591064 
	C379.519318,192.454315 381.052521,188.550690 379.759094,184.487274 
	C378.958008,181.970627 376.213806,178.802963 373.852661,178.320251 
	C369.130432,177.354828 364.072052,178.033798 359.166992,178.033798 
	C359.166992,187.619019 359.166992,196.570053 359.166992,205.650421 
	C360.844513,205.650421 362.344269,205.650421 364.257080,205.650421 
	C364.257080,201.893906 364.257080,198.484161 364.257080,195.123718 
	C366.664154,195.123718 368.650116,195.123718 370.065918,195.123718 
	C372.492584,198.965927 374.703918,202.467224 377.715759,205.996857 
M415.000000,189.515991 
	C415.000000,194.941879 415.000000,200.367752 415.000000,205.999893 
	C419.755951,205.999893 423.902161,206.078796 428.044098,205.979416 
	C432.950562,205.861694 435.868958,202.899399 435.982330,197.957184 
	C436.070160,194.128876 436.222565,190.278122 435.901062,186.474976 
	C435.752167,184.713577 434.943604,182.663574 433.745514,181.394485 
	C428.390381,175.721924 421.539978,178.763535 415.000000,177.921753 
	C415.000000,181.904419 415.000000,185.213562 415.000000,189.515991 
M118.048134,204.405258 
	C116.346390,201.148209 114.644638,197.891144 112.963333,194.673203 
	C113.401909,194.181793 113.676819,193.729919 114.073570,193.451965 
	C117.292938,191.196640 118.912651,188.109406 117.648224,184.342026 
	C116.358643,180.499664 114.115517,177.520401 109.180969,177.933975 
	C105.268761,178.261856 101.307121,178.000000 97.198532,178.000000 
	C97.198532,187.509918 97.198532,196.568527 97.198532,205.968658 
	C98.600243,205.841949 99.765671,205.736588 101.143311,205.612061 
	C101.143311,201.939774 101.143311,198.657059 101.143311,195.464569 
	C106.141182,193.796768 109.173187,195.450012 110.667259,200.197479 
	C111.050545,201.415405 111.662186,202.573761 112.266594,203.707397 
	C113.766808,206.521271 114.562805,206.673676 118.048134,204.405258 
M573.617310,178.000061 
	C572.412354,178.801056 570.186340,179.570450 570.160461,180.407898 
	C569.900696,188.805725 570.002502,197.214706 570.002502,205.993851 
	C574.704956,205.993851 579.067566,206.520172 583.209656,205.791946 
	C585.607117,205.370453 588.895752,203.367661 589.619568,201.313965 
	C591.860962,194.954056 592.242432,188.004242 588.836731,181.982681 
	C585.900818,176.791946 580.054504,178.052002 575.064026,178.000229 
	C574.898254,177.998505 574.732483,178.000000 573.617310,178.000061 
M285.985138,183.838760 
	C285.676361,188.905594 284.789459,194.022339 285.221527,199.025192 
	C285.652588,204.017136 291.414490,207.462036 296.861206,206.998398 
	C302.518372,206.516846 305.956848,202.742828 305.997070,196.949463 
	C306.014435,194.450439 305.789185,191.929489 306.043610,189.456512 
	C306.584167,184.202454 304.545197,180.392303 299.787537,178.365875 
	C294.987091,176.321243 289.798187,178.252670 285.985138,183.838760 
M393.000031,186.464508 
	C393.084534,185.040497 393.169006,183.616486 393.275360,181.824493 
	C398.372772,181.824493 403.127594,181.824493 407.882385,181.824493 
	C408.122101,181.457382 408.361816,181.090286 408.601501,180.723175 
	C407.712982,179.816818 406.854614,178.162949 405.930969,178.125656 
	C400.024994,177.887177 394.104614,178.004089 388.307983,178.004089 
	C388.307983,187.683212 388.307983,196.736740 388.307983,205.721558 
	C395.033661,205.721558 401.448242,205.721558 407.862854,205.721558 
	C404.326080,199.164627 397.760345,203.899689 393.315857,201.466507 
	C393.315857,198.989746 393.315857,196.589569 393.315857,193.813385 
	C397.717651,193.813385 401.806396,193.813385 405.895172,193.813385 
	C406.106201,193.293289 406.317200,192.773209 406.528229,192.253113 
	C405.326202,191.502213 404.190643,190.282913 402.907867,190.100830 
	C400.463104,189.753769 397.901398,190.228760 395.457336,189.879349 
	C394.539612,189.748169 393.813995,188.273163 393.000031,186.464508 
M79.901680,178.395691 
	C78.278473,178.936996 75.625290,179.050461 75.194664,180.087143 
	C71.684448,188.537643 68.589531,197.160690 65.072525,206.518082 
	C67.354500,205.909409 70.087189,205.714798 70.198456,205.068726 
	C71.395981,198.115158 76.652374,200.024475 80.838379,200.127029 
	C82.205765,200.160507 84.568695,201.540283 84.705513,202.545395 
	C85.294235,206.870377 87.899094,206.082535 90.827087,205.739822 
	C87.293762,196.625961 83.874237,187.805664 79.901680,178.395691 
M222.474289,192.021179 
	C220.781769,196.595764 219.089249,201.170349 217.060562,206.653534 
	C219.391052,205.885223 222.287735,205.560394 222.410614,204.791962 
	C223.598557,197.363831 229.265182,200.549683 233.215439,200.140427 
	C234.319427,200.026016 236.499023,201.474289 236.642609,202.436020 
	C237.263748,206.596481 239.765076,206.313812 242.756760,205.694000 
	C239.604706,197.335907 236.574966,189.046417 233.285950,180.861130 
	C232.801651,179.655869 231.114777,178.265503 229.934662,178.218948 
	C228.985001,178.181488 227.599350,179.879761 227.038193,181.098450 
	C225.498489,184.442352 224.291168,187.939316 222.474289,192.021179 
M453.587494,194.000000 
	C456.222900,194.000000 458.858276,194.000000 461.934723,194.000000 
	C461.860474,192.515549 461.802216,191.350861 461.723694,189.781677 
	C457.282471,189.781677 453.206879,189.781677 449.338135,189.781677 
	C449.338135,186.950455 449.338135,184.550629 449.338135,181.924164 
	C454.290100,181.924164 458.908051,181.924164 463.934479,181.924164 
	C463.851410,180.490433 463.784027,179.327682 463.726654,178.338104 
	C457.259430,178.338104 451.200195,178.338104 445.331787,178.338104 
	C445.331787,187.733093 445.331787,196.787308 445.331787,205.844589 
	C451.610413,205.844589 457.556396,205.844589 463.925446,205.844589 
	C463.855896,204.506836 463.795410,203.343292 463.713959,201.776779 
	C458.605255,201.776779 453.865723,201.776779 448.450470,201.776779 
	C450.494354,198.991776 445.710785,193.714569 453.587494,194.000000 
M559.989990,191.534500 
	C559.001770,191.023132 558.035767,190.129730 557.021301,190.070816 
	C553.761047,189.881500 550.482849,190.000397 547.294189,190.000397 
	C547.294189,187.028290 547.294189,184.632172 547.294189,181.852600 
	C552.337280,181.852600 557.091248,181.852600 563.594482,181.852600 
	C561.712891,179.849045 560.880310,178.168396 559.974976,178.128265 
	C554.400879,177.881149 548.810425,178.004318 543.294556,178.004318 
	C543.294556,187.654709 543.294556,196.708527 543.294556,205.999557 
	C548.719055,205.999557 553.857178,205.846283 558.980652,206.053741 
	C562.365784,206.190811 562.320496,204.620956 561.598999,201.838608 
	C556.687317,201.838608 551.940552,201.838608 547.304199,201.838608 
	C547.304199,199.011230 547.304199,196.611450 547.304199,194.000000 
	C550.081055,194.000000 552.575073,194.187912 555.023621,193.935272 
	C556.711609,193.761093 558.336731,192.977081 559.989990,191.534500 
M473.727997,178.007248 
	C473.154205,178.610107 472.088440,179.206757 472.080719,179.816788 
	C471.971771,188.425873 472.006622,197.036789 472.006622,206.521957 
	C479.228210,204.378082 474.001343,198.379333 476.910828,194.983719 
	C480.507751,194.983719 484.588867,194.983719 489.018036,194.983719 
	C488.849548,193.373444 488.727386,192.205887 488.582001,190.816559 
	C484.240326,190.816559 480.296265,190.816559 476.231567,190.816559 
	C476.231567,187.817505 476.231567,185.089355 476.231567,181.960342 
	C481.201172,181.960342 485.955109,181.960342 490.774658,181.960342 
	C490.774658,180.485733 490.774658,179.417847 490.774658,178.000656 
	C485.275452,178.000656 479.983368,178.000656 473.727997,178.007248 
M173.000000,195.482727 
	C173.000000,198.925079 173.000000,202.367432 173.000000,205.713562 
	C174.956940,205.713562 176.349503,205.713562 178.143051,205.713562 
	C178.143051,197.696716 178.143051,189.955963 178.143051,181.842117 
	C180.970078,181.842117 183.396423,181.842117 185.822769,181.842117 
	C186.054581,181.338074 186.286377,180.834030 186.518173,180.329987 
	C185.345047,179.553467 184.203018,178.168625 182.993378,178.106812 
	C178.018097,177.852554 173.015854,178.154541 168.036270,177.946655 
	C164.673233,177.806274 164.631485,179.335724 165.349655,181.840240 
	C167.962234,181.973267 170.368912,182.095810 173.000000,182.229782 
	C173.000000,186.554459 173.000000,190.523331 173.000000,195.482727 
M254.000000,201.334625 
	C254.000000,202.791916 254.000000,204.249207 254.000000,205.768417 
	C255.522217,205.768417 256.590485,205.768417 258.062439,205.768417 
	C258.062439,197.810791 258.062439,190.064758 258.062439,181.931549 
	C260.879456,181.931549 263.295410,181.931549 265.763428,181.931549 
	C265.763428,180.461395 265.763428,179.393936 265.763428,178.227432 
	C258.783691,178.227432 252.032166,178.227432 245.094223,178.227432 
	C245.094223,179.418655 244.944748,181.195282 245.116516,181.226883 
	C247.948044,181.748184 250.819977,182.049820 254.000000,182.439590 
	C254.000000,188.451035 254.000000,194.407303 254.000000,201.334625 
M498.000000,195.474915 
	C498.000153,197.971451 498.163666,200.481369 497.960632,202.961258 
	C497.684052,206.339005 499.343231,206.344604 501.999573,205.627350 
	C501.999573,197.302444 501.875458,189.164932 502.059021,181.034363 
	C502.135193,177.659363 500.650879,177.659622 498.000000,178.370300 
	C498.000000,183.870468 498.000000,189.175842 498.000000,195.474915 
M272.000000,195.474915 
	C272.000153,197.971451 272.163635,200.481354 271.960602,202.961258 
	C271.684021,206.338989 273.343231,206.344604 275.999573,205.627350 
	C275.999573,197.302444 275.875458,189.164932 276.059021,181.034363 
	C276.135223,177.659363 274.650879,177.659622 272.000000,178.370300 
	C272.000000,183.870468 272.000000,189.175842 272.000000,195.474915 
M155.000458,180.762573 
	C155.000458,189.057114 155.000458,197.351654 155.000458,206.003036 
	C156.610992,205.843887 157.778503,205.728516 159.000000,205.607819 
	C159.000000,200.699051 159.000000,196.204834 159.000000,191.710617 
	C159.000000,187.248489 159.000000,182.786362 159.000000,176.774323 
	C157.001968,178.297318 156.003555,179.058350 155.000458,180.762573 
z"/>
<path fill="#2B2A29" opacity="1.000000" stroke="none" 
	d="
M593.000000,127.562500 
	C592.332947,130.558395 591.959290,133.249298 590.886841,135.624680 
	C590.261230,137.010376 588.530762,138.838348 587.275024,138.855728 
	C571.455261,139.074677 555.630981,139.052094 539.809692,138.895920 
	C538.597046,138.883957 537.399048,137.398132 536.194214,136.597412 
	C537.328552,135.731796 538.395874,134.231171 539.608093,134.103149 
	C547.777588,133.240341 547.999695,133.107559 547.999878,124.993744 
	C548.000183,110.170288 547.840454,95.344078 548.096802,80.525063 
	C548.174133,76.056267 547.228149,73.383942 542.386108,72.660110 
	C540.487366,72.376266 537.616211,71.630432 539.041870,69.003510 
	C555.650574,69.003510 571.876038,68.939850 588.097595,69.160240 
	C589.080505,69.173592 590.760132,71.385536 590.866150,72.677017 
	C591.218201,76.966843 590.999207,81.303558 589.836975,86.488190 
	C588.623474,85.200409 587.071899,84.096230 586.255310,82.592865 
	C582.844849,76.314339 572.206909,71.660645 565.860962,74.228592 
	C564.567383,74.752037 563.204102,76.877869 563.129700,78.329414 
	C562.823303,84.309731 563.084045,90.316505 562.964600,96.310135 
	C562.907410,99.179520 564.180054,99.890053 566.868408,100.077278 
	C572.828430,100.492363 577.557129,99.148872 580.047974,93.096458 
	C580.564148,91.842171 581.768799,90.871178 583.272339,89.004684 
	C584.079041,90.887177 584.915161,91.951790 584.935974,93.032089 
	C585.060852,99.525368 585.097595,106.025146 584.907654,112.515244 
	C584.873535,113.681824 583.646667,114.813515 582.970459,115.961304 
	C581.980164,114.951675 580.436707,114.101112 580.092957,112.905586 
	C578.368774,106.909142 570.507080,102.671059 564.843262,105.194351 
	C563.886475,105.620621 563.114807,107.533432 563.081421,108.781487 
	C562.907593,115.272514 562.923584,121.771919 563.029480,128.265869 
	C563.092407,132.128891 565.935608,134.307434 571.079895,133.931305 
	C577.525146,133.460083 583.495911,131.916656 587.046509,125.475357 
	C588.081238,123.598175 590.476868,122.471199 592.624390,121.000175 
	C593.000000,123.041664 593.000000,125.083336 593.000000,127.562500 
z"/>
<path fill="#EBECEC" opacity="1.000000" stroke="none" 
	d="
M107.531342,1.000000 
	C103.218063,3.654225 98.574028,6.604293 93.629257,8.909179 
	C76.337273,16.969406 58.937675,24.798649 41.596279,32.753387 
	C40.723881,33.153572 40.013741,33.907475 38.751358,34.777130 
	C37.840397,34.993664 37.406132,34.929756 36.891937,34.713848 
	C36.553375,34.652958 36.294739,34.744068 35.603374,34.906490 
	C30.479105,35.318188 25.787109,35.938171 21.096132,35.930569 
	C14.753469,35.920288 8.411588,35.428032 2.099360,34.787552 
	C2.655393,33.847244 3.068335,33.029198 3.723974,32.710594 
	C21.560154,24.043303 39.451130,15.488112 57.249584,6.744485 
	C60.357109,5.217890 63.092655,2.934083 66.000000,1.000000 
	C79.687561,1.000000 93.375122,1.000000 107.531342,1.000000 
z"/>
<path fill="#60372B" opacity="1.000000" stroke="none" 
	d="
M37.091705,204.954437 
	C37.727661,205.845810 38.904663,206.729996 38.916599,207.629654 
	C39.048531,217.571747 38.999569,227.516235 38.999569,237.725266 
	C35.972034,238.255035 33.142368,238.750183 30.156349,239.622681 
	C23.312355,240.000000 16.624710,240.000000 9.319144,239.627502 
	C6.530613,238.748795 4.360004,238.242569 1.968945,237.684937 
	C1.968945,226.382904 1.968945,215.265015 2.105438,203.956680 
	C8.842675,206.985870 15.893427,207.522705 23.035347,206.924957 
	C27.742798,206.530960 32.407730,205.628952 37.091705,204.954437 
z"/>
<path fill="#FFFFFF" opacity="1.000000" stroke="none" 
	d="
M65.531342,1.000000 
	C63.092655,2.934083 60.357109,5.217890 57.249584,6.744485 
	C39.451130,15.488112 21.560154,24.043303 3.723974,32.710594 
	C3.068335,33.029198 2.655393,33.847244 2.068228,35.246059 
	C1.983584,47.685444 1.960061,59.311310 1.702538,70.954887 
	C1.468539,70.972603 1.000000,71.000000 1.000000,71.000000 
	C1.000000,47.742531 1.000000,24.485062 1.000000,1.000000 
	C22.353689,1.000000 43.708187,1.000000 65.531342,1.000000 
z"/>
<path fill="#AA2521" opacity="1.000000" stroke="none" 
	d="
M1.000000,71.468651 
	C1.000000,71.000000 1.468539,70.972603 1.958374,71.236542 
	C14.402128,75.831161 26.263016,74.037010 38.104401,70.958885 
	C38.718227,71.333046 39.866379,71.706085 39.867161,72.081535 
	C39.883682,79.977264 39.781895,87.873459 39.651688,95.768707 
	C39.644791,96.186852 39.182613,96.597496 38.613617,97.258087 
	C37.548824,97.324158 36.686718,96.811638 36.078079,97.024368 
	C34.087215,97.720169 32.252167,99.206215 30.243750,99.448692 
	C20.743662,100.595642 11.330018,100.054115 2.060595,96.744308 
	C1.636808,96.322327 1.318405,96.161163 1.000001,96.000000 
	C1.000000,87.979103 1.000000,79.958199 1.000000,71.468651 
z"/>
<path fill="#2D2A29" opacity="1.000000" stroke="none" 
	d="
M37.187958,204.578217 
	C32.407730,205.628952 27.742798,206.530960 23.035347,206.924957 
	C15.893427,207.522705 8.842675,206.985870 1.867141,203.893402 
	C1.492352,204.020584 1.000000,204.000000 1.000000,204.000000 
	C1.000000,195.979095 1.000000,187.958191 1.225446,179.450897 
	C1.450893,178.964493 1.902815,178.946304 2.305753,178.975311 
	C9.170882,180.326538 15.618594,182.579605 22.099785,182.680389 
	C27.413698,182.763046 32.767448,180.284454 38.103535,178.941193 
	C38.736164,179.965942 39.883507,180.974686 39.915928,182.018082 
	C40.094810,187.774811 40.202168,193.551361 39.876999,199.295227 
	C39.781944,200.974365 38.190037,202.568756 37.187958,204.578217 
z"/>
<path fill="#FFFFFF" opacity="1.000000" stroke="none" 
	d="
M1.902815,178.946304 
	C1.902815,178.946304 1.450893,178.964493 1.225446,178.982239 
	C1.000000,151.645767 1.000000,124.291542 1.000001,96.468658 
	C1.318405,96.161163 1.636808,96.322327 1.986700,97.207542 
	C1.979731,124.936501 1.941273,151.941406 1.902815,178.946304 
z"/>
<path fill="#FFFFFF" opacity="1.000000" stroke="none" 
	d="
M1.000000,204.468658 
	C1.000000,204.000000 1.492352,204.020584 1.730649,204.083862 
	C1.968945,215.265015 1.968945,226.382904 1.968945,237.684937 
	C4.360004,238.242569 6.530613,238.748795 8.850612,239.627502 
	C6.360142,240.000000 3.720284,240.000000 1.000000,240.000000 
	C1.000000,228.312546 1.000000,216.624924 1.000000,204.468658 
z"/>
<path fill="#5F362B" opacity="1.000000" stroke="none" 
	d="
M2.305753,178.975311 
	C1.941273,151.941406 1.979731,124.936501 2.092084,97.468353 
	C11.330018,100.054115 20.743662,100.595642 30.243750,99.448692 
	C32.252167,99.206215 34.087215,97.720169 36.078079,97.024368 
	C36.686718,96.811638 37.548824,97.324158 38.524189,97.669998 
	C38.819241,124.173927 38.887981,150.512390 38.923923,176.850891 
	C38.924507,177.277328 38.524105,177.704330 38.207184,178.536133 
	C32.767448,180.284454 27.413698,182.763046 22.099785,182.680389 
	C15.618594,182.579605 9.170882,180.326538 2.305753,178.975311 
z"/>
<path fill="#2B2A29" opacity="1.000000" stroke="none" 
	d="
M188.000854,82.006912 
	C185.519241,78.435120 185.322830,73.634995 180.137894,72.334511 
	C177.968719,71.790451 178.538254,69.048920 180.910263,68.704247 
	C183.529755,68.323616 186.281403,68.942802 188.977478,68.978905 
	C193.838120,69.044006 198.703262,68.906120 203.559570,69.065239 
	C204.784760,69.105385 205.983658,69.948257 207.089798,71.587616 
	C204.899750,72.312370 202.709702,73.037125 199.810074,73.996704 
	C207.645248,90.445732 215.348938,106.618706 223.280807,123.270744 
	C225.695724,119.174667 227.747086,115.438408 230.052536,111.866127 
	C231.896545,109.008812 232.023651,106.649231 230.249268,103.457596 
	C226.168991,96.118172 222.667480,88.454460 219.001968,80.888023 
	C217.140213,77.044960 215.331619,73.279373 210.597168,72.152824 
	C209.831665,71.970688 209.291885,70.839859 207.900635,69.344528 
	C218.657501,69.344528 228.186508,69.344528 237.861557,69.344528 
	C238.283783,75.109085 233.352417,71.915916 230.983459,73.603241 
	C233.940155,79.987785 236.958191,86.504761 240.451080,94.047104 
	C243.601700,87.441399 246.383347,81.864265 248.805756,76.135239 
	C249.047470,75.563560 247.198181,73.269638 246.157562,73.146927 
	C242.672256,72.735909 242.800949,70.775604 243.293350,67.946823 
	C250.203186,68.475098 256.959991,68.991676 264.463196,69.565323 
	C263.328613,70.935425 262.915741,71.955101 262.304993,72.092010 
	C255.129639,73.700264 254.297470,80.558250 250.751358,85.313148 
	C242.915054,95.820648 244.162140,105.629349 250.936935,115.758156 
	C251.976379,117.312202 252.608490,119.138718 253.740341,121.484505 
	C256.644531,114.937126 259.363373,108.950272 261.962799,102.912010 
	C265.335785,95.076820 268.645905,87.214058 271.914886,79.334869 
	C273.049896,76.599167 274.753113,73.593140 269.658264,72.795197 
	C268.991852,72.690819 268.070648,70.968704 268.179901,70.112343 
	C268.279602,69.331207 269.596649,68.140442 270.414856,68.108910 
	C275.237732,67.923050 280.074158,67.947838 284.899017,68.110512 
	C285.601715,68.134209 286.671997,69.186638 286.836548,69.926659 
	C287.005402,70.685616 286.495667,72.188911 285.898560,72.435417 
	C277.498962,75.903084 276.915436,84.662849 273.554047,91.263626 
	C266.908112,104.314270 261.322021,117.904869 255.307526,131.276627 
	C253.816544,134.591446 252.363007,137.923096 250.892242,141.247009 
	C250.286392,141.353592 249.680542,141.460159 249.074692,141.566742 
	C244.486542,132.683456 239.898376,123.800179 234.976578,114.270897 
	C229.735016,123.659698 224.822723,132.458694 219.692993,141.647202 
	C213.626877,137.534683 212.235519,131.184631 209.506851,125.869041 
	C202.126343,111.491425 195.170822,96.895653 188.000854,82.006912 
z"/>
<path fill="#2B2A29" opacity="1.000000" stroke="none" 
	d="
M333.216248,125.580597 
	C327.893127,115.866447 326.651520,105.962730 328.893738,95.533295 
	C331.678223,82.581810 340.305328,74.638168 351.979645,70.174576 
	C363.332153,65.834038 375.121887,67.035538 386.788544,69.880905 
	C390.582916,70.806305 391.577698,73.347595 391.981293,76.581451 
	C392.104156,77.566093 392.111389,78.589745 391.994904,79.574615 
	C391.742554,81.707726 391.376038,83.827332 391.056213,85.952454 
	C389.464111,84.532700 387.453766,83.380219 386.347931,81.649719 
	C379.295227,70.612823 364.755554,68.398964 354.504028,77.032257 
	C338.891479,90.180344 338.673798,117.415260 355.868713,131.196487 
	C361.525482,135.730240 368.472626,136.852402 375.565369,134.742996 
	C380.720856,133.209763 380.843872,128.310623 381.989441,124.175934 
	C382.032410,124.020935 382.006042,123.843842 381.997284,123.677818 
	C381.363373,111.649811 385.819916,110.009628 368.737122,107.677101 
	C370.413483,106.784882 372.068573,105.171570 373.769775,105.121414 
	C382.589935,104.861382 391.423798,104.908150 400.247742,105.093040 
	C401.687103,105.123199 403.100769,106.377853 404.526306,107.066544 
	C404.346527,107.507004 404.166779,107.947464 403.987030,108.387932 
	C402.662231,108.912880 401.347992,109.852531 400.010651,109.886665 
	C395.626495,109.998566 395.009827,112.813766 395.002655,116.221901 
	C394.992493,121.052200 395.300140,125.910812 394.849121,130.698654 
	C394.673828,132.559326 393.199127,135.270203 391.644196,135.880051 
	C373.158630,143.130112 355.003265,144.206772 338.134918,131.510254 
	C336.231262,130.077393 334.963776,127.799286 333.216248,125.580597 
z"/>
<path fill="#2B2A29" opacity="1.000000" stroke="none" 
	d="
M131.769821,126.604736 
	C138.918564,110.691597 145.902374,95.123383 152.807343,79.520264 
	C154.692001,75.261467 156.262634,70.863617 158.151886,66.607025 
	C158.605881,65.584175 159.756317,64.870438 160.586456,64.014542 
	C161.121643,64.845764 161.837189,65.611710 162.165161,66.517929 
	C167.800659,82.089485 173.402298,97.673340 178.978180,113.266380 
	C180.708710,118.105835 181.944016,123.173546 184.176285,127.762039 
	C185.391815,130.260590 188.181870,132.017395 190.340652,134.023911 
	C191.683151,135.271713 193.173141,136.360840 195.509567,138.264969 
	C183.230347,138.264969 172.668961,138.264969 162.107559,138.264969 
	C161.930710,137.712326 161.753876,137.159683 161.577026,136.607025 
	C164.318787,134.991760 167.060547,133.376511 170.117203,131.575714 
	C168.412476,126.042297 166.897766,120.491592 164.908188,115.116669 
	C164.415314,113.785194 162.462189,112.296097 161.042404,112.140877 
	C157.258133,111.727142 153.362411,112.326057 149.579956,111.904205 
	C146.108337,111.517006 144.512924,112.991402 143.524704,115.945152 
	C142.046692,120.362900 140.750732,124.870117 138.869110,129.113937 
	C137.677521,131.801422 138.359360,132.375717 140.867538,133.124252 
	C143.384766,133.875458 147.327118,133.977631 145.680710,138.806641 
	C137.346924,138.806641 128.885239,138.806641 120.024475,138.806641 
	C123.992287,134.729111 127.783730,130.832809 131.769821,126.604736 
M160.986588,104.664352 
	C159.239960,99.015327 157.493332,93.366302 155.746704,87.717278 
	C155.279495,87.788361 154.812286,87.859444 154.345078,87.930527 
	C152.124634,93.360237 149.904190,98.789948 147.140701,105.547531 
	C152.340424,105.547531 156.605072,105.547531 160.986588,104.664352 
z"/>
<path fill="#2B2A29" opacity="1.000000" stroke="none" 
	d="
M417.694092,112.748573 
	C424.633759,97.607872 431.295990,82.755409 438.058380,67.948669 
	C438.579224,66.808266 439.805145,65.989906 440.703369,65.021873 
	C441.466095,66.136971 442.510895,67.151550 442.949371,68.382179 
	C450.019592,88.224617 456.898346,108.136620 464.171234,127.903801 
	C465.058502,130.315445 467.902527,132.053986 469.964111,133.970657 
	C471.389526,135.295853 473.029022,136.390778 475.587799,138.376053 
	C463.056274,139.948914 444.848083,139.258118 441.199738,136.764008 
	C444.378082,134.928024 447.148193,133.327850 450.002930,131.678802 
	C448.338226,126.126953 446.474579,120.831345 445.235840,115.393394 
	C444.614929,112.667671 443.492096,111.861938 440.919891,111.963455 
	C437.260956,112.107841 433.568970,112.256439 429.934021,111.928185 
	C426.269379,111.597244 424.375763,113.412697 423.254761,116.422958 
	C421.411591,121.372421 419.719238,126.378052 418.100922,130.969543 
	C419.300171,135.261597 427.482361,131.698547 425.755280,138.814087 
	C417.301575,138.814087 408.845520,138.814087 399.037659,138.814087 
	C400.590302,137.137344 401.379456,135.484268 402.374237,135.349564 
	C406.660065,134.769150 409.032898,131.878952 410.706604,128.538361 
	C413.224945,123.511932 415.222778,118.224701 417.694092,112.748573 
M437.004272,91.669861 
	C436.561188,90.521111 436.118073,89.372353 435.108978,86.756195 
	C432.193268,93.705307 429.770020,99.480736 427.109253,105.822205 
	C432.391083,105.822205 436.507690,105.822205 441.661072,105.822205 
	C440.032196,101.085938 438.548218,96.770905 437.004272,91.669861 
z"/>
<path fill="#2B2A29" opacity="1.000000" stroke="none" 
	d="
M492.000000,120.948273 
	C492.000000,106.966713 491.857697,93.474670 492.086914,79.988945 
	C492.155457,75.954407 490.824402,74.925819 486.927307,74.892136 
	C479.071930,74.824242 472.964111,77.414108 468.907776,84.366554 
	C468.174500,85.623352 467.025116,86.755730 465.814117,87.566673 
	C465.187286,87.986412 463.809937,87.877129 463.135315,87.442474 
	C462.615692,87.107719 462.309052,85.788582 462.515137,85.085098 
	C464.097321,79.684692 465.637543,74.257240 467.589691,68.985901 
	C468.636169,66.160164 469.888458,64.466660 473.554993,67.507423 
	C476.051941,69.578186 480.523499,69.820007 484.133057,69.897079 
	C496.617737,70.163651 509.115417,70.167213 521.599487,69.886635 
	C524.872864,69.813057 528.914673,70.237930 530.718445,65.928055 
	C530.951538,65.371162 532.728455,64.845093 533.258301,65.170631 
	C534.071899,65.670555 534.938354,66.949944 534.888611,67.849213 
	C534.563660,73.735291 533.998108,79.608101 533.419922,86.586433 
	C531.994507,85.665489 529.897339,85.043404 529.734741,84.091003 
	C528.259949,75.453857 521.309998,75.947235 515.184204,75.006470 
	C514.858765,74.956497 514.518982,75.000565 514.185913,74.999916 
	C507.326111,74.986565 505.711945,76.769257 505.980957,83.595261 
	C506.391052,94.001648 506.706512,104.412285 506.981018,114.823250 
	C507.095093,119.150238 507.181305,123.492485 506.949646,127.810059 
	C506.712799,132.223297 508.308807,134.316635 512.931396,134.053024 
	C515.867249,133.885605 518.752441,134.315659 517.786377,138.790527 
	C505.697418,138.790527 493.583618,138.790527 480.305145,138.790527 
	C481.516022,137.162018 482.086121,135.621872 483.144257,135.128647 
	C485.555267,134.004776 489.684326,134.076828 490.444336,132.430130 
	C491.929321,129.212875 491.586273,125.151894 492.000000,120.948273 
z"/>
<path fill="#2B2A29" opacity="1.000000" stroke="none" 
	d="
M66.043297,134.002106 
	C71.074539,133.695602 71.938980,130.340454 71.958633,126.738792 
	C72.051300,109.759109 71.999924,92.778625 71.999924,75.445518 
	C68.479027,73.996941 64.941307,72.541443 61.403584,71.085945 
	C61.617290,70.383812 61.830994,69.681671 62.044697,68.979538 
	C73.667000,68.979538 85.289299,68.979538 96.911598,68.979538 
	C97.121826,69.588974 97.332047,70.198410 97.542274,70.807846 
	C96.143478,71.543564 94.822205,72.578667 93.332771,72.964317 
	C86.015930,74.858795 86.000053,74.797844 86.000015,82.491623 
	C85.999947,97.644791 86.105209,112.799126 85.935593,127.950394 
	C85.885017,132.467926 87.560432,134.156784 92.066879,134.065659 
	C101.036659,133.884323 109.125336,132.097229 114.491837,124.016853 
	C115.321198,122.768066 116.249680,121.585091 117.090469,120.429199 
	C122.632011,123.458542 118.919754,127.213120 118.775124,130.013565 
	C118.310028,139.019302 117.936165,139.000000 109.033653,139.000000 
	C94.713081,139.000000 80.392502,139.000000 66.071930,139.000000 
	C64.444809,139.000000 62.817684,139.000000 61.190563,139.000000 
	C60.941532,138.489090 60.692501,137.978180 60.443470,137.467270 
	C62.172703,136.312897 63.901936,135.158508 66.043297,134.002106 
z"/>
<path fill="#5F362B" opacity="1.000000" stroke="none" 
	d="
M38.223160,70.555725 
	C26.263016,74.037010 14.402128,75.831161 2.192374,71.218826 
	C1.960061,59.311310 1.983584,47.685444 2.038239,35.601074 
	C8.411588,35.428032 14.753469,35.920288 21.096132,35.930569 
	C25.787109,35.938171 30.479105,35.318188 35.835426,34.971695 
	C36.500210,34.965584 36.971863,34.865849 36.971863,34.865849 
	C37.406132,34.929756 37.840397,34.993664 38.602757,35.100189 
	C38.953938,45.893684 38.993168,56.644600 38.971310,67.395386 
	C38.969440,68.314865 38.561317,69.233521 38.223160,70.555725 
z"/>
<path fill="#AB2421" opacity="1.000000" stroke="none" 
	d="
M302.000488,38.206863 
	C302.935577,34.859051 302.935577,34.859051 309.660767,35.160126 
	C309.660767,76.181908 309.660767,117.221748 309.660767,158.631012 
	C307.468018,158.631012 305.070068,158.631012 302.000031,158.631012 
	C302.000031,118.791710 302.000031,78.739220 302.000488,38.206863 
z"/>
<path fill="#2B2A29" opacity="1.000000" stroke="none" 
	d="
M523.739380,190.238037 
	C525.405823,192.573685 526.810059,194.645218 528.947876,197.798981 
	C528.947876,190.477997 528.947876,184.451187 528.947876,178.221664 
	C530.760010,178.221664 532.156677,178.221664 533.777588,178.221664 
	C533.777588,187.415100 533.777588,196.497437 533.777588,205.665344 
	C530.416809,206.637283 528.460327,205.562164 526.661011,202.455994 
	C523.676697,197.304138 520.011902,192.546494 516.315918,187.159515 
	C516.315918,193.419724 516.315918,199.367157 516.315918,205.638748 
	C514.461670,205.816193 513.063110,205.950027 511.318634,206.116974 
	C511.318634,196.693695 511.318634,187.475372 511.318634,177.832993 
	C519.400940,178.048080 519.571777,185.937653 523.739380,190.238037 
z"/>
<path fill="#2B2A29" opacity="1.000000" stroke="none" 
	d="
M146.827240,201.440735 
	C144.778763,205.545929 141.603134,206.315506 137.716110,206.054611 
	C133.961060,205.802551 130.175812,206.000000 126.208351,206.000000 
	C126.208351,196.546890 126.208351,187.510345 126.208351,178.000000 
	C129.776611,178.000000 133.214905,178.103302 136.644165,177.971573 
	C140.229156,177.833862 144.327194,177.918533 145.543182,181.531189 
	C146.604599,184.684540 145.612991,188.528946 145.065598,191.916016 
	C145.700043,194.961182 146.334503,198.006348 146.827240,201.440735 
M130.007385,195.667831 
	C130.007385,197.734955 130.007385,199.802063 130.007385,201.999741 
	C133.157608,201.999741 135.706772,202.365494 138.072418,201.864563 
	C139.525772,201.556824 141.328003,200.173355 141.861267,198.831055 
	C142.860397,196.316025 141.477921,194.239639 138.733780,194.106461 
	C135.865372,193.967255 132.964539,194.495987 130.007385,195.667831 
M136.217880,190.000000 
	C139.368439,190.224533 141.983902,189.503479 141.946945,185.717514 
	C141.912155,182.154861 138.698746,181.308853 130.231110,182.481430 
	C130.231110,184.866486 130.231110,187.262680 130.231110,190.000000 
	C132.078964,190.000000 133.700180,190.000000 136.217880,190.000000 
z"/>
<path fill="#2B2A29" opacity="1.000000" stroke="none" 
	d="
M315.000000,187.056107 
	C315.000000,183.909882 315.000000,181.255020 315.000000,177.063293 
	C317.230225,178.506363 319.096466,179.131317 320.042145,180.427765 
	C323.912292,185.733444 327.501526,191.244064 331.883545,197.693878 
	C331.883545,190.514420 331.883545,184.494858 331.883545,178.246643 
	C333.721130,178.246643 335.119751,178.246643 336.760834,178.246643 
	C336.760834,187.380936 336.760834,196.474426 336.760834,205.594681 
	C333.574677,206.768829 331.809753,205.563446 330.077942,202.748322 
	C326.870026,197.533661 323.120148,192.652390 318.999603,186.782730 
	C318.999603,192.633499 319.144836,197.786087 318.895111,202.919464 
	C318.834442,204.167206 317.474182,205.351730 316.711487,206.565323 
	C316.140991,206.340485 315.570496,206.115646 315.000000,205.890823 
	C315.000000,199.776367 315.000000,193.661911 315.000000,187.056107 
z"/>
<path fill="#2B2A29" opacity="1.000000" stroke="none" 
	d="
M204.266647,199.664307 
	C203.155655,195.191986 200.446060,194.224747 196.269592,195.344101 
	C196.269592,198.477097 196.269592,201.874710 196.269592,205.634460 
	C194.370667,205.634460 192.872253,205.634460 191.182510,205.634460 
	C191.182510,196.625412 191.182510,187.686569 191.182510,178.106949 
	C196.124496,178.106949 201.227280,177.733185 206.243668,178.230698 
	C209.947983,178.598099 211.440277,181.982101 211.901352,185.271713 
	C212.467636,189.311966 210.265884,192.278778 207.285446,194.987503 
	C208.991455,198.262177 210.915771,201.955887 212.964783,205.888931 
	C210.954956,205.888931 209.320984,205.888931 207.464859,205.888931 
	C206.500473,203.976547 205.496597,201.985840 204.266647,199.664307 
M205.972443,183.466080 
	C202.796173,182.801666 199.619904,182.137253 196.000000,181.380051 
	C196.000000,183.858780 195.970978,185.162338 196.007767,186.464035 
	C196.048416,187.902695 196.149338,189.339630 196.221725,190.733307 
	C206.731216,191.477310 207.484283,190.974548 205.972443,183.466080 
z"/>
<path fill="#2B2A29" opacity="1.000000" stroke="none" 
	d="
M377.315491,205.982697 
	C374.703918,202.467224 372.492584,198.965927 370.065918,195.123718 
	C368.650116,195.123718 366.664154,195.123718 364.257080,195.123718 
	C364.257080,198.484161 364.257080,201.893906 364.257080,205.650421 
	C362.344269,205.650421 360.844513,205.650421 359.166992,205.650421 
	C359.166992,196.570053 359.166992,187.619019 359.166992,178.033798 
	C364.072052,178.033798 369.130432,177.354828 373.852661,178.320251 
	C376.213806,178.802963 378.958008,181.970627 379.759094,184.487274 
	C381.052521,188.550690 379.519318,192.454315 375.160706,194.591064 
	C377.165314,198.206635 379.111389,201.716675 381.287109,205.640915 
	C379.849792,205.784180 378.782776,205.890518 377.315491,205.982697 
M372.622040,190.850693 
	C373.412048,188.666748 374.202057,186.482819 374.992065,184.298874 
	C371.570923,183.233276 368.149750,182.167679 364.222168,180.944336 
	C364.222168,185.182693 364.222168,187.916977 364.222168,190.986282 
	C366.889526,190.986282 369.339722,190.986282 372.622040,190.850693 
z"/>
<path fill="#2B2A29" opacity="1.000000" stroke="none" 
	d="
M415.000000,189.019348 
	C415.000000,185.213562 415.000000,181.904419 415.000000,177.921753 
	C421.539978,178.763535 428.390381,175.721924 433.745514,181.394485 
	C434.943604,182.663574 435.752167,184.713577 435.901062,186.474976 
	C436.222565,190.278122 436.070160,194.128876 435.982330,197.957184 
	C435.868958,202.899399 432.950562,205.861694 428.044098,205.979416 
	C423.902161,206.078796 419.755951,205.999893 415.000000,205.999893 
	C415.000000,200.367752 415.000000,194.941879 415.000000,189.019348 
M431.999908,196.070801 
	C431.999939,194.905502 431.999969,193.740204 431.999969,192.574905 
	C431.999817,182.725266 430.169159,181.137192 420.241638,182.479568 
	C420.241638,188.877304 420.241638,195.286652 420.241638,201.971085 
	C424.944794,201.628220 430.366699,203.896179 431.999908,196.070801 
z"/>
<path fill="#2B2A29" opacity="1.000000" stroke="none" 
	d="
M118.267761,204.721954 
	C114.562805,206.673676 113.766808,206.521271 112.266594,203.707397 
	C111.662186,202.573761 111.050545,201.415405 110.667259,200.197479 
	C109.173187,195.450012 106.141182,193.796768 101.143311,195.464569 
	C101.143311,198.657059 101.143311,201.939774 101.143311,205.612061 
	C99.765671,205.736588 98.600243,205.841949 97.198532,205.968658 
	C97.198532,196.568527 97.198532,187.509918 97.198532,178.000000 
	C101.307121,178.000000 105.268761,178.261856 109.180969,177.933975 
	C114.115517,177.520401 116.358643,180.499664 117.648224,184.342026 
	C118.912651,188.109406 117.292938,191.196640 114.073570,193.451965 
	C113.676819,193.729919 113.401909,194.181793 112.963333,194.673203 
	C114.644638,197.891144 116.346390,201.148209 118.267761,204.721954 
M101.000061,187.436737 
	C100.810875,189.585678 100.852242,191.442261 103.939293,191.037125 
	C105.566673,190.823547 107.555313,191.560287 108.823807,190.859573 
	C110.501236,189.932938 112.693558,188.023697 112.701241,186.526718 
	C112.708946,185.024857 110.556145,182.720520 108.896461,182.191498 
	C106.548859,181.443237 103.784706,182.001831 101.000000,182.001831 
	C101.000000,183.892899 101.000000,185.196457 101.000061,187.436737 
z"/>
<path fill="#2B2A29" opacity="1.000000" stroke="none" 
	d="
M574.092041,178.000031 
	C574.732483,178.000000 574.898254,177.998505 575.064026,178.000229 
	C580.054504,178.052002 585.900818,176.791946 588.836731,181.982681 
	C592.242432,188.004242 591.860962,194.954056 589.619568,201.313965 
	C588.895752,203.367661 585.607117,205.370453 583.209656,205.791946 
	C579.067566,206.520172 574.704956,205.993851 570.002502,205.993851 
	C570.002502,197.214706 569.900696,188.805725 570.160461,180.407898 
	C570.186340,179.570450 572.412354,178.801056 574.092041,178.000031 
M585.998413,187.049133 
	C584.175110,180.446625 578.935913,182.302048 574.208862,182.050140 
	C574.208862,188.773666 574.208862,195.175797 574.208862,201.556061 
	C584.963623,202.870087 585.999939,202.008667 586.000000,191.929672 
	C586.000061,190.599884 585.999939,189.270081 585.998413,187.049133 
z"/>
<path fill="#2B2A29" opacity="1.000000" stroke="none" 
	d="
M286.003754,183.422211 
	C289.798187,178.252670 294.987091,176.321243 299.787537,178.365875 
	C304.545197,180.392303 306.584167,184.202454 306.043610,189.456512 
	C305.789185,191.929489 306.014435,194.450439 305.997070,196.949463 
	C305.956848,202.742828 302.518372,206.516846 296.861206,206.998398 
	C291.414490,207.462036 285.652588,204.017136 285.221527,199.025192 
	C284.789459,194.022339 285.676361,188.905594 286.003754,183.422211 
M297.130432,182.037003 
	C291.216217,182.178101 290.035370,183.350586 290.002563,189.151245 
	C289.987610,191.796738 289.553131,194.548355 290.146973,197.053177 
	C290.591309,198.927292 292.039032,201.160095 293.668854,201.974365 
	C295.059387,202.669052 297.780762,202.165283 299.157410,201.158218 
	C304.035797,197.589432 303.067535,185.574738 297.130432,182.037003 
z"/>
<path fill="#2B2A29" opacity="1.000000" stroke="none" 
	d="
M393.000427,186.937653 
	C393.813995,188.273163 394.539612,189.748169 395.457336,189.879349 
	C397.901398,190.228760 400.463104,189.753769 402.907867,190.100830 
	C404.190643,190.282913 405.326202,191.502213 406.528229,192.253113 
	C406.317200,192.773209 406.106201,193.293289 405.895172,193.813385 
	C401.806396,193.813385 397.717651,193.813385 393.315857,193.813385 
	C393.315857,196.589569 393.315857,198.989746 393.315857,201.466507 
	C397.760345,203.899689 404.326080,199.164627 407.862854,205.721558 
	C401.448242,205.721558 395.033661,205.721558 388.307983,205.721558 
	C388.307983,196.736740 388.307983,187.683212 388.307983,178.004089 
	C394.104614,178.004089 400.024994,177.887177 405.930969,178.125656 
	C406.854614,178.162949 407.712982,179.816818 408.601501,180.723175 
	C408.361816,181.090286 408.122101,181.457382 407.882385,181.824493 
	C403.127594,181.824493 398.372772,181.824493 393.275360,181.824493 
	C393.169006,183.616486 393.084534,185.040497 393.000427,186.937653 
z"/>
<path fill="#2B2A29" opacity="1.000000" stroke="none" 
	d="
M80.178200,178.690521 
	C83.874237,187.805664 87.293762,196.625961 90.827087,205.739822 
	C87.899094,206.082535 85.294235,206.870377 84.705513,202.545395 
	C84.568695,201.540283 82.205765,200.160507 80.838379,200.127029 
	C76.652374,200.024475 71.395981,198.115158 70.198456,205.068726 
	C70.087189,205.714798 67.354500,205.909409 65.072525,206.518082 
	C68.589531,197.160690 71.684448,188.537643 75.194664,180.087143 
	C75.625290,179.050461 78.278473,178.936996 80.178200,178.690521 
M80.544464,191.036804 
	C79.807762,189.270798 79.071053,187.504791 77.977234,184.882721 
	C76.329323,189.221909 75.142975,192.345734 73.855858,195.734894 
	C76.743408,195.734894 79.281456,195.734894 81.922546,195.734894 
	C81.556686,194.224686 81.257187,192.988403 80.544464,191.036804 
z"/>
<path fill="#2B2A29" opacity="1.000000" stroke="none" 
	d="
M222.713287,191.698425 
	C224.291168,187.939316 225.498489,184.442352 227.038193,181.098450 
	C227.599350,179.879761 228.985001,178.181488 229.934662,178.218948 
	C231.114777,178.265503 232.801651,179.655869 233.285950,180.861130 
	C236.574966,189.046417 239.604706,197.335907 242.756760,205.694000 
	C239.765076,206.313812 237.263748,206.596481 236.642609,202.436020 
	C236.499023,201.474289 234.319427,200.026016 233.215439,200.140427 
	C229.265182,200.549683 223.598557,197.363831 222.410614,204.791962 
	C222.287735,205.560394 219.391052,205.885223 217.060562,206.653534 
	C219.089249,201.170349 220.781769,196.595764 222.713287,191.698425 
M228.943359,188.394073 
	C227.914627,190.774384 226.885895,193.154694 225.744125,195.796524 
	C228.934509,195.796524 231.366440,195.796524 234.081436,195.796524 
	C232.856064,192.111343 231.719528,188.693314 230.418594,184.780899 
	C229.818192,185.976852 229.407837,186.794250 228.943359,188.394073 
z"/>
<path fill="#2B2A29" opacity="1.000000" stroke="none" 
	d="
M453.111511,194.000015 
	C445.710785,193.714569 450.494354,198.991776 448.450470,201.776779 
	C453.865723,201.776779 458.605255,201.776779 463.713959,201.776779 
	C463.795410,203.343292 463.855896,204.506836 463.925446,205.844589 
	C457.556396,205.844589 451.610413,205.844589 445.331787,205.844589 
	C445.331787,196.787308 445.331787,187.733093 445.331787,178.338104 
	C451.200195,178.338104 457.259430,178.338104 463.726654,178.338104 
	C463.784027,179.327682 463.851410,180.490433 463.934479,181.924164 
	C458.908051,181.924164 454.290100,181.924164 449.338135,181.924164 
	C449.338135,184.550629 449.338135,186.950455 449.338135,189.781677 
	C453.206879,189.781677 457.282471,189.781677 461.723694,189.781677 
	C461.802216,191.350861 461.860474,192.515549 461.934723,194.000000 
	C458.858276,194.000000 456.222900,194.000000 453.111511,194.000015 
z"/>
<path fill="#2B2A29" opacity="1.000000" stroke="none" 
	d="
M559.989990,192.000061 
	C558.336731,192.977081 556.711609,193.761093 555.023621,193.935272 
	C552.575073,194.187912 550.081055,194.000000 547.304199,194.000000 
	C547.304199,196.611450 547.304199,199.011230 547.304199,201.838608 
	C551.940552,201.838608 556.687317,201.838608 561.598999,201.838608 
	C562.320496,204.620956 562.365784,206.190811 558.980652,206.053741 
	C553.857178,205.846283 548.719055,205.999557 543.294556,205.999557 
	C543.294556,196.708527 543.294556,187.654709 543.294556,178.004318 
	C548.810425,178.004318 554.400879,177.881149 559.974976,178.128265 
	C560.880310,178.168396 561.712891,179.849045 563.594482,181.852600 
	C557.091248,181.852600 552.337280,181.852600 547.294189,181.852600 
	C547.294189,184.632172 547.294189,187.028290 547.294189,190.000397 
	C550.482849,190.000397 553.761047,189.881500 557.021301,190.070816 
	C558.035767,190.129730 559.001770,191.023132 559.989990,192.000061 
z"/>
<path fill="#2B2A29" opacity="1.000000" stroke="none" 
	d="
M474.209656,178.003952 
	C479.983368,178.000656 485.275452,178.000656 490.774658,178.000656 
	C490.774658,179.417847 490.774658,180.485733 490.774658,181.960342 
	C485.955109,181.960342 481.201172,181.960342 476.231567,181.960342 
	C476.231567,185.089355 476.231567,187.817505 476.231567,190.816559 
	C480.296265,190.816559 484.240326,190.816559 488.582001,190.816559 
	C488.727386,192.205887 488.849548,193.373444 489.018036,194.983719 
	C484.588867,194.983719 480.507751,194.983719 476.910828,194.983719 
	C474.001343,198.379333 479.228210,204.378082 472.006622,206.521957 
	C472.006622,197.036789 471.971771,188.425873 472.080719,179.816788 
	C472.088440,179.206757 473.154205,178.610107 474.209656,178.003952 
z"/>
<path fill="#2B2A29" opacity="1.000000" stroke="none" 
	d="
M173.000000,194.987457 
	C173.000000,190.523331 173.000000,186.554459 173.000000,182.229782 
	C170.368912,182.095810 167.962234,181.973267 165.349655,181.840240 
	C164.631485,179.335724 164.673233,177.806274 168.036270,177.946655 
	C173.015854,178.154541 178.018097,177.852554 182.993378,178.106812 
	C184.203018,178.168625 185.345047,179.553467 186.518173,180.329987 
	C186.286377,180.834030 186.054581,181.338074 185.822769,181.842117 
	C183.396423,181.842117 180.970078,181.842117 178.143051,181.842117 
	C178.143051,189.955963 178.143051,197.696716 178.143051,205.713562 
	C176.349503,205.713562 174.956940,205.713562 173.000000,205.713562 
	C173.000000,202.367432 173.000000,198.925079 173.000000,194.987457 
z"/>
<path fill="#2B2A29" opacity="1.000000" stroke="none" 
	d="
M254.000000,200.849091 
	C254.000000,194.407303 254.000000,188.451035 254.000000,182.439590 
	C250.819977,182.049820 247.948044,181.748184 245.116516,181.226883 
	C244.944748,181.195282 245.094223,179.418655 245.094223,178.227432 
	C252.032166,178.227432 258.783691,178.227432 265.763428,178.227432 
	C265.763428,179.393936 265.763428,180.461395 265.763428,181.931549 
	C263.295410,181.931549 260.879456,181.931549 258.062439,181.931549 
	C258.062439,190.064758 258.062439,197.810791 258.062439,205.768417 
	C256.590485,205.768417 255.522217,205.768417 254.000000,205.768417 
	C254.000000,204.249207 254.000000,202.791916 254.000000,200.849091 
z"/>
<path fill="#2B2A29" opacity="1.000000" stroke="none" 
	d="
M498.000000,194.978058 
	C498.000000,189.175842 498.000000,183.870468 498.000000,178.370300 
	C500.650879,177.659622 502.135193,177.659363 502.059021,181.034363 
	C501.875458,189.164932 501.999573,197.302444 501.999573,205.627350 
	C499.343231,206.344604 497.684052,206.339005 497.960632,202.961258 
	C498.163666,200.481369 498.000153,197.971451 498.000000,194.978058 
z"/>
<path fill="#2B2A29" opacity="1.000000" stroke="none" 
	d="
M272.000000,194.978058 
	C272.000000,189.175842 272.000000,183.870468 272.000000,178.370300 
	C274.650879,177.659622 276.135223,177.659363 276.059021,181.034363 
	C275.875458,189.164932 275.999573,197.302444 275.999573,205.627350 
	C273.343231,206.344604 271.684021,206.338989 271.960602,202.961258 
	C272.163635,200.481354 272.000153,197.971451 272.000000,194.978058 
z"/>
<path fill="#2B2A29" opacity="1.000000" stroke="none" 
	d="
M155.002808,180.290985 
	C156.003555,179.058350 157.001968,178.297318 159.000000,176.774323 
	C159.000000,182.786362 159.000000,187.248489 159.000000,191.710617 
	C159.000000,196.204834 159.000000,200.699051 159.000000,205.607819 
	C157.778503,205.728516 156.610992,205.843887 155.000458,206.003036 
	C155.000458,197.351654 155.000458,189.057114 155.002808,180.290985 
z"/>
<path fill="#FFFFFF" opacity="1.000000" stroke="none" 
	d="
M36.891937,34.713848 
	C36.971863,34.865849 36.500210,34.965584 36.268158,34.900383 
	C36.294739,34.744068 36.553375,34.652958 36.891937,34.713848 
z"/>
<path fill="#FFFFFF" opacity="1.000000" stroke="none" 
	d="
M160.928162,105.105942 
	C156.605072,105.547531 152.340424,105.547531 147.140701,105.547531 
	C149.904190,98.789948 152.124634,93.360237 154.345078,87.930527 
	C154.812286,87.859444 155.279495,87.788361 155.746704,87.717278 
	C157.493332,93.366302 159.239960,99.015327 160.928162,105.105942 
z"/>
<path fill="#FFFFFF" opacity="1.000000" stroke="none" 
	d="
M437.034241,92.062866 
	C438.548218,96.770905 440.032196,101.085938 441.661072,105.822205 
	C436.507690,105.822205 432.391083,105.822205 427.109253,105.822205 
	C429.770020,99.480736 432.193268,93.705307 435.108978,86.756195 
	C436.118073,89.372353 436.561188,90.521111 437.034241,92.062866 
z"/>
<path fill="#FFFFFF" opacity="1.000000" stroke="none" 
	d="
M130.042633,195.200287 
	C132.964539,194.495987 135.865372,193.967255 138.733780,194.106461 
	C141.477921,194.239639 142.860397,196.316025 141.861267,198.831055 
	C141.328003,200.173355 139.525772,201.556824 138.072418,201.864563 
	C135.706772,202.365494 133.157608,201.999741 130.007385,201.999741 
	C130.007385,199.802063 130.007385,197.734955 130.042633,195.200287 
z"/>
<path fill="#FFFFFF" opacity="1.000000" stroke="none" 
	d="
M135.769653,190.000000 
	C133.700180,190.000000 132.078964,190.000000 130.231110,190.000000 
	C130.231110,187.262680 130.231110,184.866486 130.231110,182.481430 
	C138.698746,181.308853 141.912155,182.154861 141.946945,185.717514 
	C141.983902,189.503479 139.368439,190.224533 135.769653,190.000000 
z"/>
<path fill="#FFFFFF" opacity="1.000000" stroke="none" 
	d="
M206.271667,183.766449 
	C207.484283,190.974548 206.731216,191.477310 196.221725,190.733307 
	C196.149338,189.339630 196.048416,187.902695 196.007767,186.464035 
	C195.970978,185.162338 196.000000,183.858780 196.000000,181.380051 
	C199.619904,182.137253 202.796173,182.801666 206.271667,183.766449 
z"/>
<path fill="#FFFFFF" opacity="1.000000" stroke="none" 
	d="
M372.205994,190.918488 
	C369.339722,190.986282 366.889526,190.986282 364.222168,190.986282 
	C364.222168,187.916977 364.222168,185.182693 364.222168,180.944336 
	C368.149750,182.167679 371.570923,183.233276 374.992065,184.298874 
	C374.202057,186.482819 373.412048,188.666748 372.205994,190.918488 
z"/>
<path fill="#FFFFFF" opacity="1.000000" stroke="none" 
	d="
M431.999146,196.512787 
	C430.366699,203.896179 424.944794,201.628220 420.241638,201.971085 
	C420.241638,195.286652 420.241638,188.877304 420.241638,182.479568 
	C430.169159,181.137192 431.999817,182.725266 431.999969,192.574905 
	C431.999969,193.740204 431.999939,194.905502 431.999146,196.512787 
z"/>
<path fill="#FFFFFF" opacity="1.000000" stroke="none" 
	d="
M101.000031,186.968369 
	C101.000000,185.196457 101.000000,183.892899 101.000000,182.001831 
	C103.784706,182.001831 106.548859,181.443237 108.896461,182.191498 
	C110.556145,182.720520 112.708946,185.024857 112.701241,186.526718 
	C112.693558,188.023697 110.501236,189.932938 108.823807,190.859573 
	C107.555313,191.560287 105.566673,190.823547 103.939293,191.037125 
	C100.852242,191.442261 100.810875,189.585678 101.000031,186.968369 
z"/>
<path fill="#FFFFFF" opacity="1.000000" stroke="none" 
	d="
M585.999146,187.494720 
	C585.999939,189.270081 586.000061,190.599884 586.000000,191.929672 
	C585.999939,202.008667 584.963623,202.870087 574.208862,201.556061 
	C574.208862,195.175797 574.208862,188.773666 574.208862,182.050140 
	C578.935913,182.302048 584.175110,180.446625 585.999146,187.494720 
z"/>
<path fill="#FFFFFF" opacity="1.000000" stroke="none" 
	d="
M297.508850,182.203339 
	C303.067535,185.574738 304.035797,197.589432 299.157410,201.158218 
	C297.780762,202.165283 295.059387,202.669052 293.668854,201.974365 
	C292.039032,201.160095 290.591309,198.927292 290.146973,197.053177 
	C289.553131,194.548355 289.987610,191.796738 290.002563,189.151245 
	C290.035370,183.350586 291.216217,182.178101 297.508850,182.203339 
z"/>
<path fill="#FFFFFF" opacity="1.000000" stroke="none" 
	d="
M80.751076,191.394470 
	C81.257187,192.988403 81.556686,194.224686 81.922546,195.734894 
	C79.281456,195.734894 76.743408,195.734894 73.855858,195.734894 
	C75.142975,192.345734 76.329323,189.221909 77.977234,184.882721 
	C79.071053,187.504791 79.807762,189.270798 80.751076,191.394470 
z"/>
<path fill="#FFFFFF" opacity="1.000000" stroke="none" 
	d="
M228.970428,188.002869 
	C229.407837,186.794250 229.818192,185.976852 230.418594,184.780899 
	C231.719528,188.693314 232.856064,192.111343 234.081436,195.796524 
	C231.366440,195.796524 228.934509,195.796524 225.744125,195.796524 
	C226.885895,193.154694 227.914627,190.774384 228.970428,188.002869 
z"/>
</svg>